<svg width="32" height="32" viewBox="0 0 32 32" fill="none" xmlns="http://www.w3.org/2000/svg">
<path d="M8.76222 18.7123L7.85719 22.0909L4.54931 22.1609C3.56073 20.3273 3 18.2295 3 16.0001C3 13.8444 3.52427 11.8115 4.45358 10.0215H4.45429L7.39924 10.5614L8.6893 13.4887C8.41929 14.2758 8.27213 15.1209 8.27213 16.0001C8.27223 16.9544 8.44509 17.8688 8.76222 18.7123Z" fill="#FBBB00"/>
<path d="M28.7729 13.5718C28.9222 14.3582 29 15.1703 29 16.0004C29 16.9311 28.9022 17.839 28.7157 18.7147C28.0829 21.6947 26.4293 24.2969 24.1386 26.1384L24.1378 26.1377L20.4285 25.9484L19.9036 22.6712C21.4236 21.7798 22.6114 20.3847 23.2372 18.7147H16.2856V13.5718H23.3386H28.7729Z" fill="#518EF8"/>
<path d="M24.1376 26.1375L24.1384 26.1382C21.9105 27.9289 19.0804 29.0004 15.9997 29.0004C11.0489 29.0004 6.74459 26.2332 4.54883 22.161L8.76174 18.7124C9.8596 21.6424 12.6861 23.7282 15.9997 23.7282C17.424 23.7282 18.7583 23.3432 19.9033 22.671L24.1376 26.1375Z" fill="#28B446"/>
<path d="M24.2982 5.99288L20.0867 9.44077C18.9017 8.70007 17.5009 8.27218 16.0002 8.27218C12.6116 8.27218 9.73224 10.4536 8.68938 13.4887L4.45432 10.0215H4.45361C6.61723 5.85003 10.9758 3 16.0002 3C19.1545 3 22.0467 4.1236 24.2982 5.99288Z" fill="#F14336"/>
</svg>
