<svg width="641" height="640" viewBox="0 0 641 640" fill="none" xmlns="http://www.w3.org/2000/svg">
<path d="M618.971 247.594C612.052 162.281 608.592 119.624 592.488 92.0265C546.378 13.005 412.319 -5.78946 327.65 1.41776C214.298 11.0639 84.6249 76.2258 27.5449 202.037C-24.2988 316.309 -0.393424 445.658 77.7237 530.272C220.925 685.383 516.316 657.689 588.475 555.908C617.272 515.289 619.348 450.41 622.399 355.106C623.865 309.23 621.004 272.671 618.971 247.594Z" fill="#F4F7FA"/>
<path d="M564.654 52.1947C557.326 46.1316 546.209 42.8295 536.811 42.1626C470.199 37.4423 460.478 176.679 470.688 207.796C480.898 238.914 474.283 249.131 421.82 265.411C369.358 281.691 394.526 313.037 400.92 331.367C407.314 349.698 419.977 365.184 381.733 383.398C343.488 401.613 356.779 412.899 356.779 412.899C356.779 412.899 427.308 485.042 423.412 461.945C419.516 438.848 426.575 403.972 489.809 401.32C517.046 400.179 558.755 387.187 567.99 358.022C570.141 351.231 571.637 340.858 570.002 333.829C567.732 324.078 561.333 316.396 557.78 307.218C549.499 285.831 570.269 270.17 582.222 255.874C588.463 248.411 594.7 240.759 599.477 232.25C609.4 214.583 605.684 195.638 594.88 179.353C589.699 171.546 582.501 163.26 580.24 153.945C577.812 143.941 579.929 130.271 580.505 119.978C580.957 111.906 581.726 103.865 581.272 95.7715C580.432 80.7222 576.906 62.3319 564.654 52.1947Z" fill="url(#paint0_linear_121_163)"/>
<g opacity="0.8">
<g opacity="0.8">
<path opacity="0.8" d="M351.233 453.39C350.777 453.555 350.258 453.361 350.028 452.92C349.776 452.438 349.961 451.842 350.443 451.591C350.74 451.435 380.432 435.817 413.554 410.094C444.076 386.392 483.836 349.02 499.934 305.573C513.38 269.288 525.641 209.301 533.577 140.997C540.693 79.7471 541.816 34.4484 538.793 26.04C538.608 25.5284 538.875 24.9644 539.386 24.7794C539.898 24.5944 540.462 24.8616 540.647 25.3731C544.184 35.2111 541.939 86.0979 535.536 141.225C527.584 209.68 515.282 269.832 501.784 306.259C485.519 350.151 445.471 387.81 414.737 411.672C381.478 437.496 351.656 453.18 351.359 453.335C351.316 453.356 351.274 453.374 351.233 453.39Z" fill="white"/>
</g>
<g opacity="0.8">
<path opacity="0.8" d="M533.469 152.87C532.96 153.053 532.442 152.911 532.254 152.402C532.008 151.728 507.175 84.92 475.154 69.8364C474.66 69.6058 474.462 69.0486 474.692 68.5553C474.925 68.062 475.517 67.8679 476.008 68.0986C508.762 83.527 533.079 148.933 534.1 151.717C534.287 152.229 533.985 152.685 533.474 152.868C533.472 152.87 533.469 152.87 533.469 152.87Z" fill="white"/>
</g>
<g opacity="0.8">
<path opacity="0.8" d="M521.358 230.347C520.979 230.484 520.536 230.377 520.264 230.046C519.919 229.626 519.979 229.004 520.399 228.66C520.582 228.509 538.865 213.512 561.423 200.927C591.903 183.923 615.262 179.175 630.85 186.818C631.339 187.058 631.54 187.647 631.3 188.136C631.06 188.625 630.471 188.826 629.983 188.586C594.115 171.002 522.37 229.584 521.65 230.178C521.561 230.254 521.461 230.311 521.358 230.347Z" fill="white"/>
</g>
<g opacity="0.8">
<path opacity="0.8" d="M441.761 388.713C441.66 388.75 441.555 388.768 441.443 388.77C440.9 388.779 440.452 388.345 440.443 387.8C440.439 387.514 439.932 358.85 433.932 328.646C428.431 300.954 417.072 266.268 394.199 258.275C393.685 258.095 393.413 257.533 393.594 257.021C393.772 256.507 394.336 256.236 394.848 256.416C413.921 263.08 427.721 287.262 435.869 328.29C441.9 358.665 442.407 387.482 442.412 387.77C442.421 388.204 442.147 388.574 441.761 388.713Z" fill="white"/>
</g>
<g opacity="0.8">
<path opacity="0.8" d="M482.463 342.402C482.063 342.546 481.602 342.418 481.337 342.059C481.013 341.621 481.106 341.004 481.542 340.682C484.714 338.337 559.536 283.33 588.715 288.583C589.251 288.679 589.605 289.193 589.509 289.727C589.413 290.264 588.902 290.62 588.365 290.522C560.014 285.418 483.484 341.696 482.714 342.265C482.636 342.326 482.55 342.37 482.463 342.402Z" fill="white"/>
</g>
</g>
<path d="M623.117 257.275C618.273 249.09 608.929 242.221 600.312 238.414C539.225 211.433 482.964 339.167 482.042 371.903C481.119 404.639 471.436 412.016 416.562 409.584C361.686 407.152 374.762 445.165 374.577 464.579C374.392 483.992 381.067 502.848 338.916 507.048C296.764 511.248 305.451 526.363 305.451 526.363C305.451 526.363 347.409 618.116 351.558 595.062C355.707 572.009 374.15 541.579 434.551 560.483C460.566 568.624 504.211 570.513 522.771 546.194C527.094 540.531 532.01 531.277 532.849 524.109C534.011 514.166 530.59 504.771 530.35 494.933C529.793 472.005 554.639 464.295 570.723 454.889C579.12 449.979 587.579 444.887 594.955 438.497C610.269 425.231 613.185 406.147 608.529 387.167C606.296 378.067 602.324 367.834 603.35 358.304C604.45 348.069 611.068 335.92 615.092 326.429C618.248 318.986 621.694 311.679 624.005 303.91C628.31 289.456 631.217 270.959 623.117 257.275Z" fill="url(#paint1_linear_121_163)"/>
<g opacity="0.8">
<g opacity="0.8">
<path opacity="0.8" d="M286.53 562.586C286.046 562.586 285.623 562.228 285.555 561.734C285.482 561.195 285.859 560.697 286.398 560.624C286.729 560.579 319.954 555.929 359.826 542.931C396.566 530.955 446.628 509.24 476.478 473.804C501.409 444.208 533.245 391.91 563.823 330.32C591.243 275.092 607.628 232.844 607.628 223.908C607.628 223.365 608.069 222.924 608.613 222.924C609.156 222.924 609.597 223.365 609.597 223.908C609.597 234.363 590.266 281.488 565.586 331.197C534.94 392.922 503.01 445.364 477.983 475.074C447.827 510.873 397.397 532.759 360.402 544.815C320.367 557.861 286.996 562.529 286.663 562.575C286.621 562.584 286.576 562.586 286.53 562.586Z" fill="white"/>
</g>
<g opacity="0.8">
<path opacity="0.8" d="M559.707 341.661C559.166 341.661 558.725 341.25 558.723 340.708C558.718 339.991 557.958 268.67 532.929 243.642C532.543 243.258 532.543 242.639 532.929 242.255C533.312 241.872 533.936 241.874 534.322 242.258C559.924 267.86 560.673 337.731 560.693 340.695C560.698 341.238 560.259 341.661 559.714 341.661C559.709 341.661 559.707 341.661 559.707 341.661Z" fill="white"/>
</g>
<g opacity="0.8">
<path opacity="0.8" d="M522.094 410.269C521.69 410.269 521.311 410.017 521.167 409.615C520.984 409.104 521.249 408.54 521.763 408.355C521.985 408.275 544.264 400.348 569.752 396.14C604.187 390.451 627.775 393.89 639.86 406.357C640.239 406.747 640.228 407.371 639.837 407.75C639.447 408.129 638.824 408.117 638.444 407.727C610.643 379.044 523.307 409.894 522.428 410.209C522.316 410.25 522.204 410.269 522.094 410.269Z" fill="white"/>
</g>
<g opacity="0.8">
<path opacity="0.8" d="M393.605 532.358C393.499 532.358 393.392 532.339 393.285 532.305C392.771 532.129 392.495 531.57 392.673 531.054C392.764 530.782 401.988 503.638 406.562 473.186C410.755 445.266 411.803 408.782 392.983 393.52C392.561 393.178 392.497 392.557 392.839 392.134C393.182 391.712 393.803 391.645 394.226 391.99C409.919 404.715 414.724 432.142 408.505 473.503C403.904 504.127 394.63 531.417 394.536 531.691C394.397 532.1 394.013 532.358 393.605 532.358Z" fill="white"/>
</g>
<g opacity="0.8">
<path opacity="0.8" d="M447.574 502.552C447.149 502.552 446.759 502.275 446.631 501.851C446.473 501.33 446.77 500.78 447.291 500.624C451.068 499.492 540.089 473.047 565.769 487.863C566.24 488.135 566.402 488.738 566.13 489.208C565.858 489.679 565.255 489.841 564.785 489.569C539.831 475.173 448.773 502.236 447.857 502.511C447.763 502.538 447.667 502.552 447.574 502.552Z" fill="white"/>
</g>
</g>
<path d="M418.344 27.1659L417.641 32.2036C415.305 32.311 413.007 32.6124 410.772 33.1148L408.867 28.415C408.349 27.1339 406.88 26.5242 405.59 27.0563L397.513 30.3836C396.22 30.9156 395.59 32.3909 396.106 33.6743L398.02 38.4335C396.063 39.6803 394.213 41.0916 392.491 42.6537L388.435 39.5068C387.339 38.6573 385.75 38.8674 384.884 39.9772L379.458 46.9195C378.588 48.0317 378.773 49.6257 379.869 50.4775L383.941 53.6426C382.856 55.6797 381.945 57.8309 381.21 60.0757L376.042 59.3974C374.653 59.2147 373.361 60.199 373.155 61.5966L371.856 70.3522C371.648 71.7543 372.607 73.0423 373.998 73.225L379.182 73.9055C379.244 76.2691 379.502 78.5939 379.961 80.857L375.096 82.8849C373.786 83.4307 373.142 84.9402 373.658 86.2533L376.898 94.4881C377.417 95.8081 378.903 96.4315 380.219 95.8812L385.085 93.8442C386.309 95.8355 387.705 97.7127 389.253 99.4574L386.01 103.668C385.133 104.808 385.32 106.439 386.43 107.311L393.382 112.764C394.494 113.637 396.108 113.417 396.983 112.273L400.187 108.09C402.233 109.179 404.398 110.086 406.657 110.809L405.928 116.03C405.729 117.459 406.705 118.768 408.107 118.951L416.883 120.102C418.287 120.287 419.582 119.275 419.778 117.845L420.486 112.664C422.873 112.561 425.218 112.253 427.5 111.739L429.425 116.525C429.959 117.855 431.455 118.483 432.766 117.928L440.95 114.459C442.259 113.904 442.882 112.381 442.346 111.056L440.421 106.304C442.419 105.014 444.3 103.55 446.045 101.931L450.046 105.041C451.165 105.911 452.768 105.692 453.627 104.552L458.987 97.4455C459.843 96.3105 459.631 94.6914 458.514 93.8259L454.549 90.7521C455.63 88.658 456.527 86.4451 457.24 84.1409L462.195 84.7917C463.586 84.9744 464.86 83.981 465.041 82.5743L466.166 73.7959C466.347 72.396 465.367 71.1126 463.979 70.9299L459.037 70.2814C458.934 67.8881 458.633 65.5405 458.126 63.2591L462.709 61.3408C463.997 60.8019 464.607 59.3129 464.072 58.0158L460.725 49.9225C460.19 48.63 458.715 48.018 457.427 48.5546L452.816 50.4775C451.56 48.5067 450.14 46.6478 448.562 44.9282L451.608 40.9523C452.455 39.8448 452.248 38.2622 451.147 37.4149L444.262 32.1237C443.161 31.2787 441.583 31.4866 440.733 32.5896L437.669 36.57C435.636 35.5149 433.49 34.638 431.249 33.9438L431.932 28.9449C432.119 27.5701 431.158 26.3072 429.781 26.1268L421.178 24.9987C419.808 24.8228 418.536 25.7888 418.344 27.1659ZM388.015 67.9726C390.502 50.6716 406.38 38.5431 423.496 40.7879C440.612 43.0327 452.633 58.822 450.334 76.1458C448.021 93.577 432.108 105.943 414.805 103.675C397.501 101.405 385.515 85.3786 388.015 67.9726Z" fill="#D8DEE8"/>
<path d="M286.436 24.4343L285.349 32.2238C281.738 32.3883 278.185 32.8541 274.727 33.6306L271.784 26.364C270.98 24.3818 268.712 23.4409 266.719 24.263L254.229 29.4081C252.231 30.2325 251.256 32.5093 252.055 34.4984L255.015 41.8563C251.989 43.7837 249.128 45.9646 246.467 48.383L240.187 43.5165C238.495 42.2034 236.035 42.53 234.697 44.2427L226.307 54.9759C224.962 56.6955 225.247 59.1596 226.942 60.4773L233.238 65.3734C231.562 68.5226 230.15 71.8499 229.013 75.3188L221.023 74.2706C218.878 73.9897 216.88 75.5106 216.558 77.6709L214.551 91.2107C214.229 93.3802 215.713 95.3693 217.864 95.6502L225.878 96.7007C225.974 100.355 226.371 103.951 227.083 107.45L219.563 110.585C217.535 111.43 216.54 113.762 217.339 115.794L222.349 128.526C223.151 130.565 225.451 131.531 227.483 130.679L235.008 127.53C236.899 130.608 239.057 133.511 241.452 136.208L236.44 142.719C235.083 144.482 235.373 147.003 237.09 148.35L247.84 156.781C249.559 158.131 252.055 157.791 253.409 156.023L258.363 149.556C261.526 151.241 264.876 152.643 268.367 153.762L267.239 161.835C266.931 164.046 268.438 166.069 270.61 166.352L284.179 168.131C286.349 168.417 288.354 166.852 288.655 164.642L289.752 156.631C293.442 156.473 297.068 155.996 300.594 155.201L303.57 162.602C304.397 164.658 306.71 165.628 308.736 164.77L321.392 159.408C323.413 158.551 324.379 156.195 323.547 154.144L320.57 146.795C323.659 144.801 326.569 142.536 329.268 140.033L335.452 144.842C337.181 146.188 339.659 145.847 340.988 144.089L349.275 133.102C350.597 131.348 350.271 128.843 348.544 127.505L342.415 122.755C344.087 119.514 345.473 116.093 346.574 112.533L354.238 113.538C356.389 113.821 358.36 112.284 358.638 110.11L360.378 96.5362C360.657 94.369 359.141 92.3868 356.996 92.1059L349.355 91.1034C349.198 87.4039 348.732 83.7729 347.946 80.2469L355.035 77.2804C357.028 76.4469 357.971 74.145 357.14 72.1399L351.963 59.6255C351.136 57.6273 348.855 56.6818 346.866 57.5108L339.739 60.4818C337.798 57.4331 335.598 54.5603 333.162 51.9044L337.871 45.7568C339.181 44.0463 338.862 41.5983 337.156 40.2874L326.509 32.1074C324.808 30.8011 322.367 31.1231 321.054 32.829L316.313 38.9835C313.168 37.3529 309.85 35.9964 306.388 34.9208L307.445 27.1907C307.735 25.0646 306.246 23.1143 304.12 22.8357L290.818 21.091C288.697 20.8124 286.733 22.3082 286.436 24.4343ZM239.541 87.5295C243.384 60.7787 267.936 42.0253 294.399 45.4965C320.862 48.9676 339.449 73.3799 335.895 100.167C332.319 127.117 307.717 146.24 280.964 142.73C254.209 139.222 235.672 114.44 239.541 87.5295Z" fill="#D8DEE8"/>
<path d="M273.709 99.8636L215.53 583.438C214.658 590.688 219.654 597.187 226.656 597.882L468.98 624.486C483.823 625.409 491.951 617.825 492.869 610.115L553.95 95.9951C554.861 88.3289 547.579 81.3843 532.671 81.3843L288.144 86.5339C281.062 86.655 274.576 92.6518 273.709 99.8636Z" fill="url(#paint2_linear_121_163)"/>
<path d="M262.802 99.0328L204.304 585.025C203.427 592.312 208.442 598.846 215.466 599.545L466.687 624.558C474.563 625.341 481.782 619.643 482.702 611.895L544.126 95.1186C545.042 87.4113 539.257 81.218 531.294 81.3527L277.287 85.6392C270.185 85.7556 263.674 91.7845 262.802 99.0328Z" fill="url(#paint3_linear_121_163)"/>
<path d="M267.57 125.838L213.349 576.449C212.529 583.257 217.227 589.35 223.802 589.989L460.067 612.956C467.388 613.668 474.097 608.35 474.956 601.136L531.721 123.755C532.575 116.58 527.204 110.772 519.807 110.852L281.117 113.394C274.474 113.463 268.385 119.064 267.57 125.838Z" fill="#D8DEE8"/>
<path d="M394.268 98.6967C393.957 101.284 395.814 103.355 398.417 103.321C401.023 103.289 403.389 101.161 403.699 98.5688C404.01 95.9768 402.146 93.9056 399.541 93.9444C396.935 93.9832 394.576 96.1116 394.268 98.6967Z" fill="url(#paint4_linear_121_163)"/>
<path d="M308.417 428.318C356.785 338.892 429.042 312.123 450.797 219.959C462.555 170.141 454.544 122.458 441.05 82.8735L531.298 81.3503C539.261 81.2156 545.045 87.4111 544.13 95.1162L482.706 611.892C481.786 619.643 474.567 625.341 466.691 624.555L269.207 604.893C267.743 524.764 286.855 468.179 308.417 428.318Z" fill="white"/>
<path d="M24.291 150.317C24.291 102.799 65.7417 64.285 115.484 64.2896C163.756 64.2941 201.852 100.782 201.852 145.786C201.852 190.791 163.756 229.222 115.484 231.691C65.7394 234.235 24.291 197.836 24.291 150.317Z" fill="url(#paint5_linear_121_163)"/>
<path d="M29.6528 146.528C29.6528 99.0098 69.9046 60.4959 118.206 60.5005C165.081 60.5051 202.076 96.9934 202.076 141.997C202.076 187.002 165.081 225.433 118.206 227.902C69.9023 230.446 29.6528 194.044 29.6528 146.528Z" fill="url(#paint6_linear_121_163)"/>
<g opacity="0.5">
<path opacity="0.5" d="M43.4331 146.165C43.4331 106.242 77.2495 73.8828 117.832 73.8896C157.214 73.8942 188.297 104.55 188.297 142.361C188.297 180.171 157.216 212.46 117.832 214.533C77.2495 216.671 43.4331 186.088 43.4331 146.165Z" fill="white"/>
</g>
<path opacity="0.5" d="M115.039 80.0236C154.421 80.0281 185.504 110.684 185.504 148.494C185.504 157.485 183.73 166.156 180.521 174.19C185.49 164.517 188.299 153.69 188.299 142.361C188.299 104.55 157.219 73.8942 117.835 73.8896C86.5348 73.8874 59.2771 93.1432 48.4365 120.264C60.7112 96.4202 86.1557 80.0213 115.039 80.0236Z" fill="white"/>
<path d="M84.1836 136.394V171.238C84.1836 181.311 92.6583 189.258 103.081 188.987L128.925 188.313C139.222 188.043 147.544 179.747 147.544 169.779V135.302L84.1836 136.394ZM107.984 172.416L112.786 157.863C110.729 156.801 109.336 154.709 109.336 152.272C109.336 148.696 112.337 145.739 116.032 145.67C119.722 145.599 122.711 148.436 122.711 152.005C122.711 154.437 121.323 156.581 119.272 157.728L124.056 172.042L107.984 172.416Z" fill="white"/>
<path d="M140.197 132.281C137.454 132.326 135.23 130.205 135.23 127.54C135.23 117.298 126.632 109.076 116.029 109.213C105.39 109.35 96.7048 117.848 96.7048 128.154C96.7048 130.835 94.4508 133.046 91.667 133.094C88.8809 133.139 86.6201 131.002 86.6201 128.316C86.6201 112.63 99.8494 99.718 116.031 99.5376C132.127 99.3572 145.155 111.849 145.155 127.385C145.155 130.043 142.937 132.235 140.197 132.281Z" fill="white"/>
<path d="M200.057 331.02C200.057 331.02 198.298 324.429 199.545 322.744C200.79 321.059 208.406 314.322 207.675 316.519C206.942 318.716 205.843 320.18 205.843 320.18C205.843 320.18 209.945 322.084 207.307 324.939C204.672 327.796 203.79 328.453 203.644 331.018C203.5 333.582 201.815 334.462 200.057 331.02Z" fill="url(#paint7_linear_121_163)"/>
<path d="M126.899 615.512C126.899 615.512 125.967 621.212 126.086 623.24C126.205 625.267 148.717 626.304 148.943 624.786C149.169 623.267 145.223 620.849 142.444 619.997C139.665 619.143 131.53 616.868 131.53 616.868L126.899 615.512Z" fill="url(#paint8_linear_121_163)"/>
<path d="M132.363 609.83L131.646 616.918C131.646 616.918 129.031 618.647 126.727 617.313L125.574 609.599L132.363 609.83Z" fill="url(#paint9_linear_121_163)"/>
<path d="M86.7326 624.751C86.7326 624.751 85.8009 630.451 85.9196 632.479C86.0384 634.507 108.551 635.544 108.777 634.025C109.005 632.507 105.057 630.088 102.277 629.237C99.4983 628.385 91.3639 626.108 91.3639 626.108L86.7326 624.751Z" fill="url(#paint10_linear_121_163)"/>
<path d="M92.198 619.07L91.4809 626.158C91.4809 626.158 88.8662 627.887 86.562 626.553L85.4087 618.839L92.198 619.07Z" fill="url(#paint11_linear_121_163)"/>
<path d="M128.279 424.794C130.88 430.069 133.484 435.344 136.085 440.62C138.177 470.725 139.218 503.464 138.549 538.474C138.051 564.522 136.66 589.197 134.66 612.358C131.131 612.196 127.603 612.033 124.075 611.871C118.973 601.746 112.951 586.406 112.396 567.47C111.819 547.719 117.806 545.095 117.427 526.184C116.934 501.671 106.655 495.131 101.179 465.646C99.0848 454.37 97.6758 439.642 99.3497 421.775C108.994 422.782 118.635 423.789 128.279 424.794Z" fill="url(#paint12_linear_121_163)"/>
<path opacity="0.3" d="M99.3517 421.775C104.558 422.318 109.765 422.862 114.974 423.405C124.349 439.718 126.966 456.694 125.319 464.205C122.992 474.831 116.835 478.234 117.176 488.901C117.511 499.456 123.73 502.194 127.674 514.633C130.405 523.247 129.683 531.167 128.13 546.655C125.002 577.852 117.468 587.393 123.778 597.621C125.57 600.528 128.802 603.988 135.132 606.63C134.977 608.544 134.824 610.462 134.662 612.355C131.133 612.196 127.605 612.031 124.077 611.871C118.975 601.746 112.953 586.406 112.398 567.47C111.821 547.719 117.808 545.095 117.429 526.184C116.936 501.671 106.657 495.133 101.181 465.649C99.0868 454.372 97.6755 439.645 99.3517 421.775Z" fill="url(#paint13_linear_121_163)"/>
<path d="M114.277 434.292C109.393 460.929 105.079 489.435 101.713 519.669C97.6478 556.173 95.4783 590.588 94.6265 622.539C90.7534 622.648 86.8826 622.758 83.0095 622.867C67.7501 592.68 66.8184 572.214 69.0176 558.888C69.8648 553.755 72.169 543.686 72.6943 528.637C73.0596 518.148 72.3905 510.164 71.5547 500.568C69.7232 479.529 67.4989 474.936 67.1792 458.844C66.8778 443.739 66.8161 436.098 71.1277 431.638C82.4866 419.884 112.037 433.251 114.277 434.292Z" fill="url(#paint14_linear_121_163)"/>
<path d="M198.031 330.005C200.607 329.824 203.181 329.646 205.757 329.466C211.831 354.017 207.474 377.831 193.763 386.589C172.34 400.273 132.525 374.492 123.897 346.419C120.111 334.097 120.971 316.316 128.542 312.861C130.643 311.902 133.904 311.754 140.967 315.718C162.061 327.561 162.616 349.945 173.34 351.841C178.104 352.686 185.805 349.646 198.031 330.005Z" fill="url(#paint15_linear_121_163)"/>
<path d="M139.049 446.021C142.76 439.864 138.099 433.926 137.039 422.264C135.838 409.044 140.931 406.842 145.966 384.935C149.316 370.365 152.529 356.378 148.693 340.004C146.854 332.157 143.735 318.848 132.719 312.42C127.035 309.102 119.272 309.435 103.983 310.234C85.0746 311.223 75.6225 311.716 68.5706 315.43C67.5383 315.973 46.0902 327.64 44.6127 346.659C43.1101 366.015 64.1882 368.616 66.9994 394.428C68.2623 406.016 66.0129 423.837 64.5536 435.395C63.1537 446.493 62.1877 449.334 64.3801 452.696C69.6599 460.796 85.8213 458.487 118.144 453.872C130.823 452.059 136.279 450.615 139.049 446.021Z" fill="url(#paint16_linear_121_163)"/>
<path d="M89.8669 390.275C88.499 395.306 83.5845 399.062 80.1636 411.3C79.426 413.942 74.1622 432.758 80.988 437.389C84.9296 440.063 88.4693 434.995 98.0378 434.333C114.617 433.187 122.516 447.122 133.348 443.315C135.227 442.653 137.707 441.246 140.185 438.012C140.678 440.926 140.594 443.459 139.05 446.023C136.282 450.618 130.824 452.061 118.145 453.872C85.8225 458.488 69.6611 460.796 64.3813 452.696C62.1912 449.337 63.1549 446.494 64.5548 435.395C66.0141 423.835 68.2635 406.014 67.0006 394.429C64.1894 368.616 43.109 366.015 44.6139 346.659C45.0158 341.484 46.9181 336.878 49.4644 332.866C76.2038 343.686 94.1625 374.465 89.8669 390.275Z" fill="url(#paint17_linear_121_163)"/>
<path d="M56.0952 428.347L61.4458 431.764C62.4072 430.654 64.6315 428.416 68.1027 427.653C72.0146 426.792 76.5066 428.027 76.6093 429.274C76.6938 430.275 73.958 431.284 73.5355 431.439C70.1214 432.7 67.5889 431.652 66.2095 433.024C65.7208 433.508 65.1134 434.413 63.7135 435.248C63.3458 435.468 62.9622 435.662 62.7589 435.742C60.4798 436.628 56.5725 432.661 56.2368 432.314L56.0952 428.347Z" fill="url(#paint18_linear_121_163)"/>
<path d="M71.9001 358.18C75.7709 348.91 78.4519 334.717 72.3385 313.642C32.0594 329.513 11.5178 367.139 19.5381 396.963C26.1492 421.551 50.2053 433.527 55.5719 436.048C56.8211 433.205 58.0702 430.364 59.3171 427.523C53.0987 420.599 46.0902 410.359 47.0813 398.674C48.456 382.473 64.0648 376.945 71.9001 358.18Z" fill="url(#paint19_linear_121_163)"/>
<path d="M102.992 291.166C102.992 291.166 102.674 298.211 100.486 303.488C98.5088 308.256 88.1135 311.255 86.0057 312.319C83.8979 313.383 89.9542 316.496 96.0356 317.106C102.117 317.718 119.482 316.336 122.613 314.032C125.744 311.728 120.096 311.901 115.757 310.307C111.416 308.713 108.906 300.225 109.674 296.372C110.441 292.517 102.992 291.166 102.992 291.166Z" fill="url(#paint20_linear_121_163)"/>
<path d="M112.61 288.61C115.766 285.509 116.207 285.148 116.55 284.077C117.929 279.777 114.593 273.885 110.217 272.435C109.989 272.36 107.054 271.421 105.935 272.693C104.983 273.773 106.383 275.267 105.718 277.352C105.095 279.302 103.405 279.448 100.269 282.006C97.6866 284.112 96.0835 285.422 95.7135 287.265C94.9508 291.063 99.5478 296.567 103.617 296.418C105.081 296.363 105.481 295.617 112.61 288.61Z" fill="url(#paint21_linear_121_163)"/>
<path d="M104.018 297.005C104.018 297.005 107.372 300.803 112.481 299.547C117.055 298.423 115.888 287.923 112.54 286.247C111.423 285.687 109.393 285.733 107.868 286.468C106.966 286.902 106.715 287.354 105.228 288.035C103.858 288.663 103.422 288.576 103.054 289.019C102.593 289.572 102.394 290.764 103.839 293.637C102.798 292.899 101.677 292.744 100.989 293.232C100.88 293.31 100.601 293.584 100.48 293.943C100.044 295.242 101.396 296.564 104.018 297.005Z" fill="url(#paint22_linear_121_163)"/>
<path d="M486.589 154.835L487.77 161.209L463.465 161.266L252.546 161.766C247.12 161.78 242.13 166.265 241.386 171.785L191.036 508.289C190.287 513.859 198.955 522.361 204.349 522.776L297.922 529.967V529.853L437.892 540.591C437.895 540.591 437.897 540.591 437.899 540.591L438.237 540.733C444.214 541.194 449.697 536.857 450.473 530.975C450.473 530.972 450.473 531 450.475 530.997L497.628 171.721C498.396 165.893 492.6 154.819 486.589 154.835Z" fill="url(#paint23_linear_121_163)"/>
<path d="M445.705 523.973C444.933 529.858 439.452 534.257 433.476 533.798L199.346 515.821C193.954 515.407 190.202 510.557 190.951 504.987L236.723 164.905C237.465 159.385 242.455 154.9 247.876 154.884L483.328 154.235C489.336 154.219 493.598 158.931 492.835 164.758L445.705 523.973Z" fill="url(#paint24_linear_121_163)"/>
<path d="M448.815 336.947C448.432 339.861 445.71 342.035 442.736 341.926L236.675 334.406C233.955 334.307 232.041 332.067 232.416 329.283L236.467 299.256C236.842 296.474 239.324 294.592 242.046 294.668L448.288 300.395C451.266 300.477 453.374 302.581 452.992 305.492L448.815 336.947Z" fill="white"/>
<path d="M440.836 397.96C440.452 400.881 437.728 403.373 434.755 403.224L228.849 393.053C226.131 392.918 224.24 390.317 224.615 387.531L228.698 356.923C229.072 354.139 231.578 351.753 234.297 351.863L440.329 360.173C443.302 360.294 445.406 362.984 445.022 365.9L440.836 397.96Z" fill="white"/>
<path opacity="0.1" d="M453.009 305.371C452.52 305.214 451.995 305.127 451.435 305.111L245.189 299.386C242.469 299.308 239.985 301.195 239.615 303.969L235.556 333.997C235.547 334.075 235.541 334.148 235.534 334.226C233.442 333.636 232.097 331.654 232.412 329.279L236.47 299.251C236.84 296.477 239.325 294.588 242.044 294.668L448.291 300.393C451.216 300.48 453.315 302.517 453.009 305.371Z" fill="url(#paint25_linear_121_163)"/>
<path opacity="0.1" d="M445.067 365.224C444.571 365.027 444.037 364.909 443.47 364.886L237.443 356.573C234.723 356.464 232.214 358.855 231.844 361.638L227.754 392.249C227.731 392.445 227.715 392.634 227.715 392.831C225.623 392.155 224.294 389.906 224.609 387.53L228.699 356.92C229.069 354.137 231.577 351.746 234.299 351.855L440.326 360.168C443.078 360.286 445.073 362.582 445.067 365.224Z" fill="url(#paint26_linear_121_163)"/>
<path d="M386.075 447.413C386.682 442.807 383.426 438.564 378.797 438.297L272.207 432.177C267.793 431.923 263.716 435.641 263.116 440.126L258.717 473.28C258.117 477.772 261.179 482.07 265.591 482.372L372.126 489.661C376.753 489.978 381.014 486.071 381.624 481.458L386.075 447.413Z" fill="url(#paint27_linear_121_163)"/>
<path d="M394.125 224.041C392.72 234.64 387.276 244.206 379.534 251.242C371.192 258.83 360.203 263.448 348.776 263.227C337.405 263.007 327.835 258.04 321.689 250.283C316.021 243.133 313.244 233.605 314.635 223.185C317.528 201.506 337.446 183.981 359.303 184.034C381.368 184.082 397.043 201.992 394.125 224.041Z" fill="url(#paint28_linear_121_163)"/>
<path d="M372.87 211.995C371.61 221.49 362.845 229.099 353.329 228.985C343.852 228.871 337.216 221.136 338.469 211.709C339.725 202.285 348.401 194.682 357.883 194.726C367.406 194.769 374.131 202.499 372.87 211.995Z" fill="white"/>
<path d="M379.536 251.242C371.194 258.831 360.205 263.448 348.777 263.227C337.407 263.007 327.836 258.04 321.691 250.283C328.725 240.484 340.326 233.966 352.646 234.126C365.032 234.286 375.017 241.15 379.536 251.242Z" fill="white"/>
<path opacity="0.4" d="M492.833 164.758L445.705 523.972C444.933 529.855 439.103 534.228 433.129 533.769L292.508 522.972C285.828 516.133 280.327 507.925 276.401 498.076C274.474 493.246 273.063 488.035 272.124 482.554C269.514 467.386 270.525 450.144 274.332 433.22C277.26 420.192 281.85 407.33 287.726 395.724C292.426 386.446 297.952 377.962 304.125 370.833C308.569 365.701 313.376 360.716 318.446 355.827C324.559 349.926 331.056 344.166 337.759 338.459C353.377 325.153 370.1 312.143 385.583 298.404C421.309 266.711 450.293 231.299 443.318 180.771C443.095 179.179 440.918 166.991 438.137 154.358L482.979 154.234C488.985 154.218 493.598 158.932 492.833 164.758Z" fill="white"/>
<defs>
<linearGradient id="paint0_linear_121_163" x1="428.188" y1="461.211" x2="594.984" y2="10.7312" gradientUnits="userSpaceOnUse">
<stop offset="0.00359712" stop-color="#E38DDD"/>
<stop offset="1" stop-color="#9571F6"/>
</linearGradient>
<linearGradient id="paint1_linear_121_163" x1="304.712" y1="416.738" x2="628.243" y2="416.738" gradientUnits="userSpaceOnUse">
<stop stop-color="#FF9085"/>
<stop offset="1" stop-color="#FB6FBB"/>
</linearGradient>
<linearGradient id="paint2_linear_121_163" x1="387.738" y1="340.467" x2="483.236" y2="350.885" gradientUnits="userSpaceOnUse">
<stop stop-color="#444B8C"/>
<stop offset="0.9964" stop-color="#26264F"/>
</linearGradient>
<linearGradient id="paint3_linear_121_163" x1="303.595" y1="99.7459" x2="539.734" y2="903.662" gradientUnits="userSpaceOnUse">
<stop stop-color="#444B8C"/>
<stop offset="0.9964" stop-color="#26264F"/>
</linearGradient>
<linearGradient id="paint4_linear_121_163" x1="392.082" y1="79.9443" x2="669.609" y2="831.581" gradientUnits="userSpaceOnUse">
<stop stop-color="#FFC444"/>
<stop offset="0.9964" stop-color="#F36F56"/>
</linearGradient>
<linearGradient id="paint5_linear_121_163" x1="-2032.59" y1="2171.28" x2="-1842.76" y2="1992.27" gradientUnits="userSpaceOnUse">
<stop stop-color="#311944"/>
<stop offset="1" stop-color="#893976"/>
</linearGradient>
<linearGradient id="paint6_linear_121_163" x1="58.1697" y1="196.561" x2="210.287" y2="58.5185" gradientUnits="userSpaceOnUse">
<stop stop-color="#FF9085"/>
<stop offset="1" stop-color="#FB6FBB"/>
</linearGradient>
<linearGradient id="paint7_linear_121_163" x1="212.292" y1="316.593" x2="182.148" y2="347.275" gradientUnits="userSpaceOnUse">
<stop stop-color="#FFC444"/>
<stop offset="0.9964" stop-color="#F36F56"/>
</linearGradient>
<linearGradient id="paint8_linear_121_163" x1="137.573" y1="608.041" x2="137.827" y2="539.973" gradientUnits="userSpaceOnUse">
<stop stop-color="#AA80F9"/>
<stop offset="0.9964" stop-color="#6165D7"/>
</linearGradient>
<linearGradient id="paint9_linear_121_163" x1="130.831" y1="629.915" x2="127.589" y2="594.741" gradientUnits="userSpaceOnUse">
<stop stop-color="#FFC444"/>
<stop offset="0.9964" stop-color="#F36F56"/>
</linearGradient>
<linearGradient id="paint10_linear_121_163" x1="97.4426" y1="607.892" x2="97.6967" y2="539.823" gradientUnits="userSpaceOnUse">
<stop stop-color="#AA80F9"/>
<stop offset="0.9964" stop-color="#6165D7"/>
</linearGradient>
<linearGradient id="paint11_linear_121_163" x1="90.1588" y1="633.662" x2="86.9177" y2="598.488" gradientUnits="userSpaceOnUse">
<stop stop-color="#FFC444"/>
<stop offset="0.9964" stop-color="#F36F56"/>
</linearGradient>
<linearGradient id="paint12_linear_121_163" x1="129.6" y1="452.686" x2="104.65" y2="580.242" gradientUnits="userSpaceOnUse">
<stop stop-color="#311944"/>
<stop offset="1" stop-color="#893976"/>
</linearGradient>
<linearGradient id="paint13_linear_121_163" x1="142.051" y1="515.06" x2="104.566" y2="518.064" gradientUnits="userSpaceOnUse">
<stop stop-color="#311944"/>
<stop offset="1" stop-color="#893976"/>
</linearGradient>
<linearGradient id="paint14_linear_121_163" x1="121.317" y1="522.111" x2="64.4129" y2="526.672" gradientUnits="userSpaceOnUse">
<stop stop-color="#311944"/>
<stop offset="1" stop-color="#893976"/>
</linearGradient>
<linearGradient id="paint15_linear_121_163" x1="166.265" y1="334.292" x2="124.165" y2="604.672" gradientUnits="userSpaceOnUse">
<stop stop-color="#AA80F9"/>
<stop offset="0.9964" stop-color="#6165D7"/>
</linearGradient>
<linearGradient id="paint16_linear_121_163" x1="76.7245" y1="631.073" x2="56.362" y2="903.951" gradientUnits="userSpaceOnUse">
<stop stop-color="#AA80F9"/>
<stop offset="0.9964" stop-color="#6165D7"/>
</linearGradient>
<linearGradient id="paint17_linear_121_163" x1="7.49461" y1="538.032" x2="119.878" y2="345.528" gradientUnits="userSpaceOnUse">
<stop stop-color="#AA80F9"/>
<stop offset="0.9964" stop-color="#6165D7"/>
</linearGradient>
<linearGradient id="paint18_linear_121_163" x1="47.3342" y1="404.93" x2="71.0367" y2="436.949" gradientUnits="userSpaceOnUse">
<stop stop-color="#FFC444"/>
<stop offset="0.9964" stop-color="#F36F56"/>
</linearGradient>
<linearGradient id="paint19_linear_121_163" x1="26.9744" y1="627.361" x2="6.6119" y2="900.239" gradientUnits="userSpaceOnUse">
<stop stop-color="#AA80F9"/>
<stop offset="0.9964" stop-color="#6165D7"/>
</linearGradient>
<linearGradient id="paint20_linear_121_163" x1="114.644" y1="325.143" x2="91.8258" y2="296.752" gradientUnits="userSpaceOnUse">
<stop stop-color="#FFC444"/>
<stop offset="0.9964" stop-color="#F36F56"/>
</linearGradient>
<linearGradient id="paint21_linear_121_163" x1="97.2934" y1="314.715" x2="109.387" y2="274.93" gradientUnits="userSpaceOnUse">
<stop stop-color="#444B8C"/>
<stop offset="0.9964" stop-color="#3E4177"/>
</linearGradient>
<linearGradient id="paint22_linear_121_163" x1="128.137" y1="300.832" x2="94.1191" y2="285.69" gradientUnits="userSpaceOnUse">
<stop stop-color="#FFC444"/>
<stop offset="0.9964" stop-color="#F36F56"/>
</linearGradient>
<linearGradient id="paint23_linear_121_163" x1="190.991" y1="347.802" x2="497.698" y2="347.802" gradientUnits="userSpaceOnUse">
<stop stop-color="#311944"/>
<stop offset="1" stop-color="#893976"/>
</linearGradient>
<linearGradient id="paint24_linear_121_163" x1="377.459" y1="951.039" x2="340.888" y2="317.573" gradientUnits="userSpaceOnUse">
<stop offset="0.003597" stop-color="#F36F56"/>
<stop offset="1" stop-color="#FFC444"/>
</linearGradient>
<linearGradient id="paint25_linear_121_163" x1="232.365" y1="314.448" x2="453.037" y2="314.448" gradientUnits="userSpaceOnUse">
<stop offset="0.003597" stop-color="#F36F56"/>
<stop offset="1" stop-color="#FFC444"/>
</linearGradient>
<linearGradient id="paint26_linear_121_163" x1="224.565" y1="372.342" x2="445.066" y2="372.342" gradientUnits="userSpaceOnUse">
<stop offset="0.003597" stop-color="#F36F56"/>
<stop offset="1" stop-color="#FFC444"/>
</linearGradient>
<linearGradient id="paint27_linear_121_163" x1="332.946" y1="393.718" x2="283.654" y2="706.302" gradientUnits="userSpaceOnUse">
<stop offset="0.003597" stop-color="#F36F56"/>
<stop offset="1" stop-color="#FFC444"/>
</linearGradient>
<linearGradient id="paint28_linear_121_163" x1="349.161" y1="68.2619" x2="359.688" y2="381.736" gradientUnits="userSpaceOnUse">
<stop offset="0.003597" stop-color="#F36F56"/>
<stop offset="1" stop-color="#FFC444"/>
</linearGradient>
</defs>
</svg>
